<?xml version="1.0" standalone="no"?>
<!DOCTYPE svg PUBLIC "-//W3C//DTD SVG 20010904//EN"
 "http://www.w3.org/TR/2001/REC-SVG-20010904/DTD/svg10.dtd">
<svg version="1.0" xmlns="http://www.w3.org/2000/svg"
 width="2321.000000pt" height="848.000000pt" viewBox="0 0 2321.000000 848.000000"
 preserveAspectRatio="xMidYMid meet">
<metadata>
Created by potrace 1.15, written by Peter Selinger 2001-2017
</metadata>
<g transform="translate(0.000000,848.000000) scale(0.100000,-0.100000)"
fill="#000000" stroke="none">
<path d="M7845 7621 c-87 -23 -165 -80 -212 -153 -52 -84 -53 -99 -53 -825 0
-370 -2 -673 -5 -673 -2 0 -43 25 -89 55 -164 107 -393 202 -576 240 -211 44
-462 49 -668 15 -251 -43 -515 -151 -722 -298 -122 -86 -316 -280 -402 -402
-378 -534 -427 -1241 -127 -1820 84 -163 176 -286 314 -425 140 -141 261 -229
436 -319 578 -299 1271 -249 1809 132 122 86 316 280 402 402 180 254 291 555
318 865 7 80 10 588 8 1535 l-3 1415 -28 61 c-56 120 -168 195 -301 200 -39 2
-84 -1 -101 -5z m-1053 -2045 c373 -96 661 -385 759 -759 33 -126 37 -321 9
-457 -45 -217 -126 -366 -290 -530 -153 -153 -284 -229 -484 -281 -114 -30
-311 -37 -430 -15 -412 78 -736 384 -839 795 -31 123 -31 349 0 472 49 194
142 359 283 499 163 164 359 264 588 300 101 16 296 5 404 -24z"/>
<path d="M2600 6275 c-651 -90 -1202 -547 -1409 -1171 -72 -217 -97 -396 -88
-629 35 -854 683 -1551 1541 -1656 137 -17 391 -7 530 21 700 138 1238 676
1376 1376 41 204 38 488 -6 704 -103 498 -455 955 -914 1185 -309 155 -686
217 -1030 170z m450 -702 c201 -40 366 -130 521 -283 157 -155 237 -298 291
-518 32 -129 30 -331 -5 -463 -52 -197 -142 -357 -281 -495 -223 -223 -533
-337 -831 -304 -134 14 -228 41 -350 99 -556 266 -766 949 -452 1471 87 145
193 255 333 347 231 150 501 201 774 146z"/>
<path d="M10030 6283 c-19 -2 -84 -13 -145 -24 -347 -65 -659 -233 -911 -491
-251 -256 -400 -542 -471 -903 -14 -70 -18 -140 -18 -310 0 -257 13 -345 80
-550 92 -281 238 -512 457 -720 126 -121 256 -212 413 -290 265 -131 443 -174
762 -182 314 -8 510 19 721 101 186 71 380 185 458 268 178 189 131 451 -102
560 -58 27 -72 30 -147 27 -80 -4 -85 -6 -187 -65 -203 -118 -373 -174 -592
-195 -329 -30 -621 69 -850 289 -100 96 -173 197 -229 316 -21 46 -39 87 -39
90 0 3 559 7 1243 8 l1242 3 46 23 c118 59 188 164 197 296 10 156 -31 428
-93 613 -201 604 -748 1040 -1413 1128 -97 13 -333 18 -422 8z m410 -710 c348
-69 624 -290 744 -595 14 -36 26 -69 26 -72 0 -3 -445 -6 -990 -6 l-990 0 11
28 c45 122 134 255 240 361 252 250 607 355 959 284z"/>
<path d="M13649 6265 c-792 -124 -1393 -761 -1469 -1556 -7 -74 -10 -379 -8
-879 l3 -765 26 -56 c37 -79 90 -133 167 -171 60 -30 75 -33 152 -33 65 1 96
6 132 22 66 30 114 69 149 120 67 97 63 44 69 953 7 945 1 883 105 1095 62
129 124 214 225 309 186 175 402 265 679 284 103 8 139 14 182 34 67 31 130
91 166 160 25 48 28 62 28 158 0 98 -2 109 -30 158 -38 70 -112 136 -181 161
-45 17 -77 21 -182 20 -70 -1 -166 -7 -213 -14z"/>
<path d="M19100 1790 l0 -640 145 0 145 0 0 279 0 278 173 6 c100 3 188 11
211 18 49 17 131 90 159 143 20 37 22 55 22 201 0 181 -7 205 -82 277 -79 76
-88 78 -450 78 l-323 0 0 -640z m515 459 c45 -40 58 -85 54 -197 -3 -72 -8
-96 -25 -118 -40 -54 -64 -65 -162 -71 l-92 -6 0 212 0 211 95 0 c91 0 95 -1
130 -31z"/>
<path d="M20422 2417 c-50 -16 -132 -94 -158 -152 -24 -50 -24 -51 -24 -475 0
-424 0 -425 24 -475 28 -61 109 -137 164 -153 25 -8 115 -12 248 -12 188 0
213 2 254 21 55 25 114 80 143 134 22 39 22 48 22 485 0 437 0 446 -22 485
-29 54 -88 109 -143 134 -41 19 -64 20 -260 20 -122 -1 -229 -6 -248 -12z
m319 -160 c68 -45 69 -49 69 -467 0 -337 -2 -379 -18 -410 -37 -75 -127 -102
-193 -57 -68 45 -69 49 -69 464 0 239 4 382 11 400 32 86 127 119 200 70z"/>
<path d="M21561 2417 c-51 -16 -135 -99 -161 -159 -19 -45 -22 -64 -18 -162 3
-88 8 -119 25 -151 12 -22 100 -129 197 -238 96 -109 180 -206 186 -217 5 -10
10 -42 10 -70 0 -46 -4 -56 -34 -86 -31 -31 -40 -34 -90 -34 -88 0 -146 40
-146 102 l0 28 -76 0 -77 0 6 -58 c8 -94 48 -156 127 -198 29 -16 63 -19 201
-22 154 -3 170 -2 218 19 70 30 136 104 157 177 22 75 15 210 -13 273 -11 26
-70 102 -129 169 -222 251 -263 302 -270 336 -8 45 11 98 47 129 25 21 41 25
91 25 52 0 63 -4 88 -28 16 -16 33 -48 40 -70 l11 -42 75 0 76 0 -7 53 c-14
105 -61 177 -139 213 -47 22 -63 24 -206 23 -85 -1 -170 -6 -189 -12z"/>
</g>
</svg>
